HIERARCHY
ROOT newVegas:Hips
{
	OFFSET 0.000000 96.479958 0.000000
	CHANNELS 6 Xposition Yposition Zposition Xrotation Yrotation Zrotation
	JOINT newVegas:Pelvis
	{
		OFFSET 0.000000 0.000000 0.000000
		CHANNELS 3 Xrotation Yrotation Zrotation
		JOINT newVegas:LeftUpLeg
		{
			OFFSET 18.735201 -5.666702 -4.541200
			CHANNELS 3 Xrotation Yrotation Zrotation
			JOINT newVegas:LeftLeg
			{
				OFFSET -0.021200 -31.938179 0.493100
				CHANNELS 3 Xrotation Yrotation Zrotation
				JOINT newVegas:LeftFoot
				{
					OFFSET 0.021200 -31.938179 -4.336299
					CHANNELS 3 Xrotation Yrotation Zrotation
					JOINT newVegas:LeftToeBase
					{
						OFFSET 0.943001 -26.722000 15.023500
						CHANNELS 3 Xrotation Yrotation Zrotation
						End Site
						{
							OFFSET 0.000000 30.670183 0.000000
						}
					}
				}
				JOINT newVegas:Left_PantLeg
				{
					OFFSET 0.663870 -9.044666 -1.108900
					CHANNELS 3 Xrotation Yrotation Zrotation
					End Site
					{
						OFFSET 1.415995 20.635357 0.000000
					}
				}
			}
		}
		JOINT newVegas:RightUpLeg
		{
			OFFSET -18.735201 -5.666702 -4.541200
			CHANNELS 3 Xrotation Yrotation Zrotation
			JOINT newVegas:RightLeg
			{
				OFFSET 0.018946 -31.938133 0.493100
				CHANNELS 3 Xrotation Yrotation Zrotation
				JOINT newVegas:RightFoot
				{
					OFFSET -0.018946 -31.938126 -4.336299
					CHANNELS 3 Xrotation Yrotation Zrotation
					JOINT newVegas:RightToeBase
					{
						OFFSET -0.943001 -26.722004 15.023500
						CHANNELS 3 Xrotation Yrotation Zrotation
						End Site
						{
							OFFSET 0.000000 30.670187 0.000000
						}
					}
				}
				JOINT newVegas:Right_PantLeg
				{
					OFFSET -0.661674 -9.044716 -1.108900
					CHANNELS 3 Xrotation Yrotation Zrotation
					End Site
					{
						OFFSET -1.415958 20.635269 0.000000
					}
				}
			}
		}
	}
	JOINT newVegas:Spine
	{
		OFFSET 0.000000 10.199997 -0.299500
		CHANNELS 3 Xrotation Yrotation Zrotation
		JOINT newVegas:Spine1
		{
			OFFSET 0.000000 11.900002 -1.516600
			CHANNELS 3 Xrotation Yrotation Zrotation
			JOINT newVegas:Spine2
			{
				OFFSET 0.000000 13.600006 -2.842500
				CHANNELS 3 Xrotation Yrotation Zrotation
				JOINT newVegas:Neck
				{
					OFFSET 0.000000 9.624100 -2.890100
					CHANNELS 3 Xrotation Yrotation Zrotation
					JOINT newVegas:Head
					{
						OFFSET 0.000000 14.068802 -1.351900
						CHANNELS 3 Xrotation Yrotation Zrotation
						JOINT newVegas:Hair_Back
						{
							OFFSET 0.000000 3.231903 -17.524799
							CHANNELS 3 Xrotation Yrotation Zrotation
							End Site
							{
								OFFSET 0.000000 19.849884 0.000000
							}
						}
						JOINT newVegas:Hair_Front
						{
							OFFSET 0.000000 31.260406 4.573800
							CHANNELS 3 Xrotation Yrotation Zrotation
							JOINT newVegas:Hair_Front1
							{
								OFFSET 0.000000 2.284103 11.993300
								CHANNELS 3 Xrotation Yrotation Zrotation
								JOINT newVegas:Hair_Front2
								{
									OFFSET 0.000000 2.284103 11.993300
									CHANNELS 3 Xrotation Yrotation Zrotation
									End Site
									{
										OFFSET 0.000000 12.208862 0.000000
									}
								}
							}
						}
						JOINT newVegas:Jowel
						{
							OFFSET 0.000000 -7.458206 6.864100
							CHANNELS 3 Xrotation Yrotation Zrotation
							End Site
							{
								OFFSET 0.000000 19.849884 0.000000
							}
						}
					}
				}
				JOINT newVegas:LeftShoulder
				{
					OFFSET 15.263000 10.923401 -0.547700
					CHANNELS 3 Xrotation Yrotation Zrotation
					JOINT newVegas:LeftArm
					{
						OFFSET 25.438599 -2.830597 -13.032500
						CHANNELS 3 Xrotation Yrotation Zrotation
						JOINT newVegas:LeftForeArm
						{
							OFFSET 29.960503 0.000000 0.000000
							CHANNELS 3 Xrotation Yrotation Zrotation
							JOINT newVegas:LeftHand
							{
								OFFSET 27.849251 0.000000 0.000000
								CHANNELS 3 Xrotation Yrotation Zrotation
								JOINT newVegas:LeftHandThumb1
								{
									OFFSET 4.487587 -3.305161 6.305391
									CHANNELS 3 Xrotation Yrotation Zrotation
									JOINT newVegas:LeftHandThumb2
									{
										OFFSET 5.480453 -3.164139 3.164143
										CHANNELS 3 Xrotation Yrotation Zrotation
										JOINT newVegas:LeftHandThumb3
										{
											OFFSET 5.159721 -2.978973 2.978967
											CHANNELS 3 Xrotation Yrotation Zrotation
											End Site
											{
												OFFSET 2.494507 5.926697 1.738678
											}
										}
									}
								}
								JOINT newVegas:LeftHandIndex1
								{
									OFFSET 18.578728 -0.527832 5.208049
									CHANNELS 3 Xrotation Yrotation Zrotation
									JOINT newVegas:LeftHandIndex2
									{
										OFFSET 3.192009 0.000000 0.000000
										CHANNELS 3 Xrotation Yrotation Zrotation
										JOINT newVegas:LeftHandIndex3
										{
											OFFSET 3.835129 0.000000 0.000000
											CHANNELS 3 Xrotation Yrotation Zrotation
											End Site
											{
												OFFSET -0.034599 3.816971 0.371180
											}
										}
									}
								}
								JOINT newVegas:LeftHandMiddle1
								{
									OFFSET 18.476105 0.000000 0.000000
									CHANNELS 3 Xrotation Yrotation Zrotation
									JOINT newVegas:LeftHandMiddle2
									{
										OFFSET 3.324875 0.000000 0.000000
										CHANNELS 3 Xrotation Yrotation Zrotation
										JOINT newVegas:LeftHandMiddle3
										{
											OFFSET 4.596550 0.000000 0.000000
											CHANNELS 3 Xrotation Yrotation Zrotation
											End Site
											{
												OFFSET 0.057701 4.578827 0.399218
											}
										}
									}
								}
								JOINT newVegas:LeftHandRing1
								{
									OFFSET 17.732719 0.121887 -4.201567
									CHANNELS 3 Xrotation Yrotation Zrotation
									JOINT newVegas:LeftHandRing2
									{
										OFFSET 2.733170 0.000000 0.000000
										CHANNELS 3 Xrotation Yrotation Zrotation
										JOINT newVegas:LeftHandRing3
										{
											OFFSET 3.178268 0.000000 0.000000
											CHANNELS 3 Xrotation Yrotation Zrotation
											End Site
											{
												OFFSET 0.119102 3.170624 0.185394
											}
										}
									}
								}
								JOINT newVegas:LeftHandPinky1
								{
									OFFSET 15.989624 -0.606689 -7.535461
									CHANNELS 3 Xrotation Yrotation Zrotation
									JOINT newVegas:LeftHandPinky2
									{
										OFFSET 2.538986 0.000000 0.000000
										CHANNELS 3 Xrotation Yrotation Zrotation
										JOINT newVegas:LeftHandPinky3
										{
											OFFSET 2.593102 0.000000 0.000000
											CHANNELS 3 Xrotation Yrotation Zrotation
											End Site
											{
												OFFSET -0.150902 2.584198 0.152708
											}
										}
									}
								}
							}
							JOINT newVegas:Left_Sleeve
							{
								OFFSET 0.267448 -0.649796 0.577675
								CHANNELS 3 Xrotation Yrotation Zrotation
								End Site
								{
									OFFSET 0.000000 15.991241 0.000000
								}
							}
							JOINT newVegas:Left_CapeC
							{
								OFFSET 15.715958 -8.608795 -6.935905
								CHANNELS 3 Xrotation Yrotation Zrotation
								JOINT newVegas:Left_CapeC1
								{
									OFFSET 0.000000 -8.688499 0.000000
									CHANNELS 3 Xrotation Yrotation Zrotation
									End Site
									{
										OFFSET 0.000000 8.688499 0.000000
									}
								}
							}
						}
						JOINT newVegas:Left_CapeB
						{
							OFFSET 26.118385 -8.608795 -7.079235
							CHANNELS 3 Xrotation Yrotation Zrotation
							JOINT newVegas:Left_CapeB1
							{
								OFFSET 0.000000 -8.688499 0.000000
								CHANNELS 3 Xrotation Yrotation Zrotation
								End Site
								{
									OFFSET 0.000000 8.688499 0.000000
								}
							}
						}
						JOINT newVegas:Left_CapeA
						{
							OFFSET 5.115639 -8.608795 -10.395809
							CHANNELS 3 Xrotation Yrotation Zrotation
							JOINT newVegas:Left_CapeA1
							{
								OFFSET 0.000000 -8.688499 0.000000
								CHANNELS 3 Xrotation Yrotation Zrotation
								End Site
								{
									OFFSET 0.000000 8.688499 0.000000
								}
							}
						}
					}
				}
				JOINT newVegas:RightShoulder
				{
					OFFSET -15.263000 10.923401 -0.547700
					CHANNELS 3 Xrotation Yrotation Zrotation
					JOINT newVegas:RightArm
					{
						OFFSET -25.438599 -2.830597 -13.032500
						CHANNELS 3 Xrotation Yrotation Zrotation
						JOINT newVegas:RightForeArm
						{
							OFFSET -29.960503 0.000000 0.000000
							CHANNELS 3 Xrotation Yrotation Zrotation
							JOINT newVegas:RightHand
							{
								OFFSET -27.849251 0.000000 0.000000
								CHANNELS 3 Xrotation Yrotation Zrotation
								JOINT newVegas:RightHandThumb1
								{
									OFFSET -4.487587 -3.305161 6.305391
									CHANNELS 3 Xrotation Yrotation Zrotation
									JOINT newVegas:RightHandThumb2
									{
										OFFSET -5.480453 -3.164139 3.164143
										CHANNELS 3 Xrotation Yrotation Zrotation
										JOINT newVegas:RightHandThumb3
										{
											OFFSET -5.159721 -2.978973 2.978967
											CHANNELS 3 Xrotation Yrotation Zrotation
											End Site
											{
												OFFSET -2.494507 5.926697 1.738678
											}
										}
									}
								}
								JOINT newVegas:RightHandIndex1
								{
									OFFSET -18.578728 -0.527832 5.208049
									CHANNELS 3 Xrotation Yrotation Zrotation
									JOINT newVegas:RightHandIndex2
									{
										OFFSET -3.192009 0.000000 0.000000
										CHANNELS 3 Xrotation Yrotation Zrotation
										JOINT newVegas:RightHandIndex3
										{
											OFFSET -3.835129 0.000000 0.000000
											CHANNELS 3 Xrotation Yrotation Zrotation
											End Site
											{
												OFFSET 0.034599 3.816971 0.371180
											}
										}
									}
								}
								JOINT newVegas:RightHandMiddle1
								{
									OFFSET -18.476105 0.000000 0.000000
									CHANNELS 3 Xrotation Yrotation Zrotation
									JOINT newVegas:RightHandMiddle2
									{
										OFFSET -3.324875 0.000000 0.000000
										CHANNELS 3 Xrotation Yrotation Zrotation
										JOINT newVegas:RightHandMiddle3
										{
											OFFSET -4.596550 0.000000 0.000000
											CHANNELS 3 Xrotation Yrotation Zrotation
											End Site
											{
												OFFSET -0.057701 4.578827 0.399218
											}
										}
									}
								}
								JOINT newVegas:RightHandRing1
								{
									OFFSET -17.732719 0.121887 -4.201567
									CHANNELS 3 Xrotation Yrotation Zrotation
									JOINT newVegas:RightHandRing2
									{
										OFFSET -2.733170 0.000000 0.000000
										CHANNELS 3 Xrotation Yrotation Zrotation
										JOINT newVegas:RightHandRing3
										{
											OFFSET -3.178268 0.000000 0.000000
											CHANNELS 3 Xrotation Yrotation Zrotation
											End Site
											{
												OFFSET -0.119102 3.170624 0.185394
											}
										}
									}
								}
								JOINT newVegas:RightHandPinky1
								{
									OFFSET -15.989624 -0.606689 -7.535461
									CHANNELS 3 Xrotation Yrotation Zrotation
									JOINT newVegas:RightHandPinky2
									{
										OFFSET -2.538986 0.000000 0.000000
										CHANNELS 3 Xrotation Yrotation Zrotation
										JOINT newVegas:RightHandPinky3
										{
											OFFSET -2.593102 0.000000 0.000000
											CHANNELS 3 Xrotation Yrotation Zrotation
											End Site
											{
												OFFSET 0.150902 2.584198 0.152708
											}
										}
									}
								}
							}
							JOINT newVegas:Right_CapeC
							{
								OFFSET -15.715958 -8.608795 -6.935905
								CHANNELS 3 Xrotation Yrotation Zrotation
								JOINT newVegas:Right_CapeC1
								{
									OFFSET 0.000000 -8.688499 0.000000
									CHANNELS 3 Xrotation Yrotation Zrotation
									End Site
									{
										OFFSET 0.000000 8.688499 0.000000
									}
								}
							}
							JOINT newVegas:Right_Sleeve
							{
								OFFSET -0.267448 -0.649994 0.577675
								CHANNELS 3 Xrotation Yrotation Zrotation
								End Site
								{
									OFFSET 0.000000 15.991302 0.000000
								}
							}
						}
						JOINT newVegas:Right_CapeA
						{
							OFFSET -5.115540 -8.608795 -10.395824
							CHANNELS 3 Xrotation Yrotation Zrotation
							JOINT newVegas:Right_CapeA1
							{
								OFFSET 0.000000 -8.688499 0.000000
								CHANNELS 3 Xrotation Yrotation Zrotation
								End Site
								{
									OFFSET 0.000000 8.688499 0.000000
								}
							}
						}
						JOINT newVegas:Right_CapeB
						{
							OFFSET -26.118187 -8.608795 -7.079266
							CHANNELS 3 Xrotation Yrotation Zrotation
							JOINT newVegas:Right_CapeB1
							{
								OFFSET 0.000000 -8.688499 0.000000
								CHANNELS 3 Xrotation Yrotation Zrotation
								End Site
								{
									OFFSET 0.000000 8.688499 0.000000
								}
							}
						}
					}
				}
				JOINT newVegas:Left_Collar
				{
					OFFSET 18.625099 8.655502 8.828100
					CHANNELS 3 Xrotation Yrotation Zrotation
					JOINT newVegas:Left_Collar1
					{
						OFFSET 14.783401 10.540405 -1.259500
						CHANNELS 3 Xrotation Yrotation Zrotation
						End Site
						{
							OFFSET 0.000000 18.199875 0.000000
						}
					}
				}
				JOINT newVegas:Collar_Back
				{
					OFFSET 0.000000 15.630707 -20.132601
					CHANNELS 3 Xrotation Yrotation Zrotation
					End Site
					{
						OFFSET 0.000000 22.523010 0.000000
					}
				}
				JOINT newVegas:Left_Peck
				{
					OFFSET 17.239599 -5.132599 25.482599
					CHANNELS 3 Xrotation Yrotation Zrotation
					End Site
					{
						OFFSET 0.000000 22.523010 0.000000
					}
				}
				JOINT newVegas:Right_Peck
				{
					OFFSET -17.239599 -5.132202 25.482599
					CHANNELS 3 Xrotation Yrotation Zrotation
					End Site
					{
						OFFSET 0.000000 22.523010 0.000000
					}
				}
				JOINT newVegas:Right_Collar
				{
					OFFSET -18.625099 8.655792 8.828100
					CHANNELS 3 Xrotation Yrotation Zrotation
					JOINT newVegas:Right_Collar1
					{
						OFFSET -14.783401 10.539993 -1.259500
						CHANNELS 3 Xrotation Yrotation Zrotation
						End Site
						{
							OFFSET 0.000000 18.199631 0.000000
						}
					}
				}
			}
		}
		JOINT newVegas:Belly
		{
			OFFSET 0.000000 -6.540398 9.014299
			CHANNELS 3 Xrotation Yrotation Zrotation
			End Site
			{
				OFFSET 0.000000 11.566666 0.000000
			}
		}
	}
	JOINT newVegas:ElvisFacialAnim_Joint
	{
		OFFSET 1.000000 -95.330101 -8.825800
		CHANNELS 3 Xrotation Yrotation Zrotation
		End Site
		{
			OFFSET 0.000000 35.315800 0.000000
		}
	}
}
MOTION
Frames: 4
Frame Time: 0.016667
-4.161081 89.139381 3.619355 2.465548 27.954747 0.864966 -0.000000 0.000001 -0.000000 -39.070991 -23.173034 -0.106940 31.695582 15.094691 -8.532544 5.856755 -3.208942 -6.040526 0.000000 -0.000001 0.000000 -0.000000 -0.000001 -0.000000 8.204638 -27.483551 -2.441241 24.949020 -8.763800 6.766036 -31.849490 -11.230597 2.032019 0.000000 0.000002 -0.000000 -0.000002 0.000000 -0.000001 3.916143 4.675224 -1.851976 0.662380 3.033937 0.848257 0.672732 3.142729 0.838939 -0.625660 2.006443 -1.242542 -0.625662 2.006452 -1.242543 -0.000000 0.000000 -0.000000 -0.625732 2.006444 -1.242540 -0.625585 2.006415 -1.242544 0.000000 0.000000 -0.000000 -0.000000 0.000000 -0.000000 -0.170425 1.694771 -1.674852 -70.359179 1.043902 -26.985326 2.443058 -70.793251 3.754327 -29.776162 28.488647 8.482179 17.563627 -5.694003 -12.929224 10.852314 26.148382 8.654090 -0.000001 -0.000000 -0.000003 13.978270 1.203590 -55.006041 0.372674 1.163867 -65.441866 -0.000000 -0.000001 0.000003 7.502537 1.175415 -63.755281 1.809505 1.478252 -64.569835 0.000002 -0.000001 -0.000000 8.574320 2.179082 -75.149020 -0.208022 1.014702 -57.856825 0.000000 -0.000002 -0.000003 10.030097 13.637066 -84.750251 0.878838 0.065113 -64.595496 -0.000002 -0.000002 0.000002 -0.000000 0.000002 -0.000001 -0.000000 0.000002 -0.000001 -0.000001 0.000003 -0.000000 0.000002 0.000001 -0.000000 0.000002 0.000001 0.000000 0.000002 0.000001 -0.000000 0.000002 0.000000 -0.000000 4.020289 15.450586 6.652469 13.125176 -8.190056 63.320799 15.659590 40.753526 -6.335587 0.612810 5.014376 4.113597 15.788505 -2.734486 -17.205892 -2.198340 -31.113550 7.361201 0.000000 0.000000 -0.000000 2.074285 -2.892246 8.063595 -2.121934 -2.465260 18.435492 -0.000002 -0.000001 0.000001 -2.068504 -5.551580 13.796158 0.296927 -5.078020 27.073138 -0.000000 0.000001 0.000001 -2.790443 -9.236753 13.386738 4.022957 -4.011809 34.251742 -0.000000 0.000001 -0.000000 -5.652139 -13.452102 23.029975 10.777262 -2.332138 36.218441 0.000001 -0.000005 -0.000000 -0.000001 0.000000 -0.000000 -0.000001 0.000000 -0.000000 -0.000001 0.000000 -0.000001 0.000001 0.000001 -0.000000 0.000001 0.000002 -0.000000 0.000001 0.000001 -0.000000 0.000001 0.000002 -0.000000 0.000001 -0.000003 0.000000 0.000001 -0.000003 0.000000 0.000001 -0.000003 0.000000 0.000001 -0.000003 0.000000 0.000001 -0.000003 0.000000 0.000001 -0.000003 0.000000 0.000001 -0.000003 0.000000 0.000000 -0.000003 0.000000 -0.000000 0.000001 -0.000000 
-4.265702 89.210548 3.588027 2.695154 26.572820 0.676110 -0.000000 -0.000001 0.000000 -38.767297 -22.581095 0.701511 32.125057 15.305976 -8.594596 5.312302 -2.981647 -6.171471 -0.000000 -0.000000 -0.000000 -0.000000 0.000002 0.000001 7.178142 -26.488887 -2.781602 25.402677 -8.488377 6.685642 -31.702279 -11.066399 1.931341 -0.000000 0.000000 -0.000000 0.000001 0.000001 -0.000000 3.981508 4.584267 -1.855293 0.707249 2.981736 0.854122 0.717241 3.091658 0.846010 -0.683707 1.729169 -1.173253 -0.683717 1.729144 -1.173246 0.000000 -0.000002 0.000000 -0.683785 1.729157 -1.173248 -0.683642 1.729132 -1.173247 -0.000001 0.000002 -0.000000 0.000000 -0.000002 0.000000 -0.162804 1.312155 -1.801276 -70.388917 1.155131 -27.050797 2.651009 -71.946446 3.781614 -30.374951 28.694618 9.100154 17.563627 -5.694003 -12.929224 10.852309 26.148391 8.654090 0.000003 0.000000 -0.000003 13.978266 1.203592 -55.006041 0.372676 1.163867 -65.441866 -0.000001 -0.000000 0.000002 7.502535 1.175417 -63.755281 1.809508 1.478253 -64.569842 0.000001 0.000001 0.000002 8.574316 2.179086 -75.149020 -0.208024 1.014701 -57.856825 -0.000003 -0.000002 -0.000002 10.030094 13.637065 -84.750251 0.878840 0.065115 -64.595496 0.000001 0.000000 -0.000001 0.000001 0.000003 -0.000000 0.000001 0.000003 -0.000000 0.000000 0.000004 0.000000 -0.000002 0.000000 -0.000001 -0.000002 0.000000 -0.000002 -0.000002 0.000000 -0.000001 -0.000002 0.000000 -0.000001 4.048800 15.426144 6.521220 12.805616 -8.144396 63.265761 15.745709 41.230850 -6.421001 0.382675 5.166913 4.027972 15.788508 -2.734486 -17.205897 -2.198344 -31.113547 7.361201 0.000000 -0.000002 -0.000001 2.074627 -2.893185 8.030013 -2.121186 -2.465789 18.407495 -0.000001 -0.000002 -0.000000 -2.069256 -5.550815 13.763153 0.297737 -5.078500 27.045821 -0.000001 -0.000001 0.000001 -2.792284 -9.234401 13.352264 4.022603 -4.012739 34.223230 0.000002 0.000001 0.000001 -5.659323 -13.435646 23.012562 10.777859 -2.332977 36.195440 -0.000000 0.000002 -0.000002 0.000000 0.000000 0.000002 -0.000001 0.000001 -0.000001 0.000000 0.000000 0.000001 -0.000004 0.000003 0.000001 -0.000003 0.000004 0.000001 -0.000004 0.000003 0.000001 -0.000004 0.000004 0.000001 0.000001 0.000000 0.000000 0.000001 0.000000 0.000000 0.000001 0.000000 0.000000 0.000001 0.000000 0.000000 0.000001 0.000000 0.000000 0.000001 0.000000 0.000000 0.000001 0.000000 0.000000 -0.000000 -0.000001 0.000000 -0.000000 -0.000001 0.000000 
-4.366320 89.278542 3.545858 2.952939 25.155773 0.485529 -0.000000 -0.000001 0.000000 -38.492737 -22.009368 1.507387 32.564078 15.556611 -8.673194 4.757983 -2.726001 -6.320014 0.000000 0.000002 0.000000 0.000000 -0.000002 0.000000 6.104808 -25.429189 -3.153841 25.872651 -8.213154 6.679356 -31.537470 -10.887017 1.831870 0.000000 0.000003 0.000000 -0.000001 0.000000 -0.000000 4.042608 4.507546 -1.838807 0.745713 2.934837 0.846919 0.756891 3.044797 0.839888 -0.747349 1.488618 -1.121933 -0.747347 1.488598 -1.121931 -0.000000 -0.000002 0.000000 -0.747347 1.488620 -1.121934 -0.747346 1.488613 -1.121934 -0.000000 0.000001 0.000000 -0.000000 -0.000002 -0.000000 -0.084040 0.806778 -1.884200 -70.540288 1.291848 -27.179162 2.895035 -73.071044 3.786725 -31.235657 28.851388 9.761321 17.563628 -5.694006 -12.929223 10.852310 26.148392 8.654089 0.000000 -0.000003 -0.000001 13.978267 1.203593 -55.006041 0.372674 1.163865 -65.441873 -0.000002 0.000000 0.000000 7.502538 1.175415 -63.755281 1.809508 1.478252 -64.569849 -0.000001 -0.000000 -0.000000 8.574320 2.179083 -75.149020 -0.208025 1.014701 -57.856825 -0.000001 0.000001 -0.000002 10.030098 13.637069 -84.750251 0.878836 0.065115 -64.595496 0.000001 -0.000002 -0.000002 0.000000 0.000002 0.000001 0.000000 0.000002 0.000001 -0.000000 0.000002 0.000001 -0.000002 -0.000001 -0.000001 -0.000001 -0.000001 -0.000001 -0.000002 -0.000001 -0.000001 -0.000001 -0.000002 -0.000001 4.018017 15.343494 6.386903 12.582813 -8.065740 63.241855 15.851390 41.731964 -6.506789 0.197825 5.306158 3.964801 15.788506 -2.734488 -17.205892 -2.198344 -31.113547 7.361203 0.000000 -0.000002 -0.000003 2.074926 -2.893520 7.958542 -2.120549 -2.465809 18.342301 -0.000000 0.000001 0.000000 -2.070264 -5.549544 13.692536 0.297850 -5.078824 26.981085 -0.000004 0.000001 0.000000 -2.794167 -9.231174 13.280186 4.022285 -4.012924 34.157267 0.000000 0.000004 0.000002 -5.666644 -13.418906 22.958431 10.777984 -2.333358 36.135741 0.000002 0.000002 -0.000001 -0.000001 -0.000001 0.000001 -0.000001 -0.000002 0.000000 -0.000001 -0.000001 0.000002 -0.000001 -0.000002 -0.000001 -0.000001 -0.000001 -0.000001 -0.000001 -0.000002 -0.000001 -0.000001 -0.000001 -0.000001 -0.000001 -0.000003 0.000001 -0.000001 -0.000003 0.000001 -0.000001 -0.000003 0.000001 -0.000001 -0.000003 0.000001 -0.000001 -0.000003 0.000001 -0.000001 -0.000003 0.000001 -0.000001 -0.000003 0.000001 -0.000000 0.000002 -0.000000 -0.000000 -0.000001 0.000000 
-4.465264 89.342896 3.493817 3.240364 23.700295 0.293087 -0.000000 -0.000002 0.000000 -38.254257 -21.483141 2.306795 32.998399 15.838961 -8.774454 4.223153 -2.450950 -6.462832 -0.000000 -0.000001 -0.000000 0.000000 0.000000 -0.000000 4.974606 -24.378344 -3.519361 26.382342 -7.959420 6.675631 -31.361848 -10.715255 1.719160 -0.000000 -0.000001 -0.000000 0.000002 -0.000000 -0.000000 4.091343 4.393996 -1.855490 0.790327 2.868900 0.853545 0.800375 2.980542 0.848367 -0.837298 1.280600 -1.064028 -0.837296 1.280586 -1.064028 -0.000000 0.000001 -0.000000 -0.837300 1.280605 -1.064028 -0.837302 1.280583 -1.064025 -0.000000 -0.000001 0.000000 -0.000000 0.000001 -0.000000 -0.018817 0.448295 -1.891517 -70.716541 1.401110 -27.633596 3.155357 -74.131089 3.832556 -32.165089 28.983361 10.355850 17.563628 -5.694012 -12.929228 10.852304 26.148384 8.654086 -0.000003 -0.000002 -0.000003 13.978269 1.203588 -55.006041 0.372671 1.163864 -65.441866 -0.000000 -0.000001 0.000001 7.502538 1.175409 -63.755274 1.809506 1.478252 -64.569849 0.000002 -0.000001 -0.000001 8.574318 2.179079 -75.149013 -0.208025 1.014698 -57.856825 0.000002 0.000001 -0.000003 10.030100 13.637059 -84.750251 0.878838 0.065112 -64.595490 -0.000001 -0.000003 -0.000001 -0.000000 0.000001 0.000001 -0.000000 0.000001 0.000001 -0.000001 0.000001 0.000002 -0.000001 -0.000001 0.000000 -0.000001 0.000000 -0.000000 -0.000001 -0.000001 0.000000 -0.000001 -0.000001 0.000001 4.046393 15.322758 6.229104 12.299361 -7.930878 63.218100 15.936168 42.171657 -6.586628 0.097016 5.468626 3.943407 15.788506 -2.734488 -17.205895 -2.198344 -31.113547 7.361201 0.000001 -0.000001 0.000001 2.075160 -2.893293 7.852210 -2.120026 -2.465283 18.240804 0.000000 -0.000001 0.000000 -2.071542 -5.547802 13.586788 0.297054 -5.079007 26.880708 0.000002 0.000002 0.000001 -2.798418 -9.227087 13.172301 4.022020 -4.012410 34.056034 0.000001 -0.000001 0.000001 -5.674531 -13.400908 22.869616 10.777677 -2.333350 36.041266 0.000000 -0.000000 0.000000 -0.000002 -0.000001 0.000000 -0.000000 -0.000001 0.000000 -0.000002 -0.000001 0.000002 -0.000002 -0.000001 -0.000001 -0.000002 0.000000 -0.000001 -0.000002 -0.000001 -0.000001 -0.000002 -0.000000 -0.000000 0.000001 -0.000001 0.000000 0.000001 -0.000001 0.000000 0.000001 -0.000001 0.000000 0.000001 -0.000001 0.000000 0.000001 -0.000001 0.000000 0.000001 -0.000001 0.000000 0.000001 -0.000001 0.000000 0.000000 -0.000000 0.000000 -0.000000 -0.000002 0.000000 
